<mxfile host="app.diagrams.net" modified="2021-02-21T02:21:33.255Z" agent="5.0 (Windows NT 10.0; Win64; x64) AppleWebKit/537.36 (KHTML, like Gecko) Chrome/85.0.4183.102 Safari/537.36" etag="xS-p5WzM4eawuaMWEAIW" version="14.3.1" type="github">
  <diagram id="prtHgNgQTEPvFCAcTncT" name="Page-1">
    <mxGraphModel dx="716" dy="378" grid="1" gridSize="10" guides="1" tooltips="1" connect="1" arrows="1" fold="1" page="1" pageScale="1" pageWidth="1169" pageHeight="827" math="0" shadow="0">
      <root>
        <object label="" id="0">
          <mxCell />
        </object>
        <mxCell id="1" parent="0" />
        <mxCell id="XOxbf55b8lKNXetok6DY-13" value="Orders" style="swimlane;startSize=20;horizontal=0;" vertex="1" parent="1">
          <mxGeometry x="130" y="120" width="870" height="120" as="geometry" />
        </mxCell>
        <mxCell id="XOxbf55b8lKNXetok6DY-18" value="Order Tablets" style="ellipse;whiteSpace=wrap;html=1;aspect=fixed;" vertex="1" parent="XOxbf55b8lKNXetok6DY-13">
          <mxGeometry x="40" y="20" width="80" height="80" as="geometry" />
        </mxCell>
        <mxCell id="XOxbf55b8lKNXetok6DY-19" value="Order 1-25 tablets KW-Samsung from Stradix" style="whiteSpace=wrap;html=1;aspect=fixed;" vertex="1" parent="XOxbf55b8lKNXetok6DY-13">
          <mxGeometry x="140" y="20" width="80" height="80" as="geometry" />
        </mxCell>
        <mxCell id="XOxbf55b8lKNXetok6DY-20" value="Order 2- 53 tablets to FLGTLR-Samsung from Stradix" style="whiteSpace=wrap;html=1;aspect=fixed;" vertex="1" parent="XOxbf55b8lKNXetok6DY-13">
          <mxGeometry x="240" y="20" width="80" height="80" as="geometry" />
        </mxCell>
        <mxCell id="XOxbf55b8lKNXetok6DY-21" value="Order 3- 166? to FLGTLR-Samsung from Stradix" style="whiteSpace=wrap;html=1;aspect=fixed;" vertex="1" parent="XOxbf55b8lKNXetok6DY-13">
          <mxGeometry x="340" y="20" width="80" height="80" as="geometry" />
        </mxCell>
        <mxCell id="XOxbf55b8lKNXetok6DY-22" value="Order 3-200 Samsung from Stradix" style="whiteSpace=wrap;html=1;aspect=fixed;" vertex="1" parent="XOxbf55b8lKNXetok6DY-13">
          <mxGeometry x="440" y="20" width="80" height="80" as="geometry" />
        </mxCell>
        <mxCell id="XOxbf55b8lKNXetok6DY-23" value="Order 4-300 Zebra from Zebra" style="whiteSpace=wrap;html=1;aspect=fixed;" vertex="1" parent="XOxbf55b8lKNXetok6DY-13">
          <mxGeometry x="530" y="20" width="80" height="80" as="geometry" />
        </mxCell>
        <mxCell id="XOxbf55b8lKNXetok6DY-24" value="Order 5-300 Zebra from Zebra" style="whiteSpace=wrap;html=1;aspect=fixed;" vertex="1" parent="XOxbf55b8lKNXetok6DY-13">
          <mxGeometry x="620" y="20" width="80" height="80" as="geometry" />
        </mxCell>
        <mxCell id="XOxbf55b8lKNXetok6DY-25" value="Order 6-213 Zebra from Zebra" style="whiteSpace=wrap;html=1;aspect=fixed;" vertex="1" parent="XOxbf55b8lKNXetok6DY-13">
          <mxGeometry x="720" y="20" width="80" height="80" as="geometry" />
        </mxCell>
        <mxCell id="XOxbf55b8lKNXetok6DY-14" value="Contract" style="swimlane;startSize=20;horizontal=0;rounded=0;" vertex="1" parent="1">
          <mxGeometry x="130" y="240" width="870" height="120" as="geometry" />
        </mxCell>
        <mxCell id="XOxbf55b8lKNXetok6DY-26" value="Execute Zebra Contract" style="shape=note;whiteSpace=wrap;html=1;backgroundOutline=1;darkOpacity=0.05;rounded=0;" vertex="1" parent="XOxbf55b8lKNXetok6DY-14">
          <mxGeometry x="530" y="10" width="80" height="100" as="geometry" />
        </mxCell>
        <mxCell id="XOxbf55b8lKNXetok6DY-32" value="Cannot purchase Samsungs as no licences are available" style="shape=note;whiteSpace=wrap;html=1;backgroundOutline=1;darkOpacity=0.05;rounded=0;" vertex="1" parent="XOxbf55b8lKNXetok6DY-14">
          <mxGeometry x="440" y="10" width="80" height="100" as="geometry" />
        </mxCell>
        <mxCell id="XOxbf55b8lKNXetok6DY-15" value="APK Testing" style="swimlane;startSize=20;horizontal=0;" vertex="1" parent="1">
          <mxGeometry x="130" y="360" width="870" height="120" as="geometry" />
        </mxCell>
        <mxCell id="XOxbf55b8lKNXetok6DY-27" value="Zebra tablets Andriod OS 10 does not broadcast IMEI or S\N" style="whiteSpace=wrap;html=1;aspect=fixed;rounded=0;" vertex="1" parent="XOxbf55b8lKNXetok6DY-15">
          <mxGeometry x="50" y="14" width="80" height="80" as="geometry" />
        </mxCell>
        <mxCell id="XOxbf55b8lKNXetok6DY-28" value="Downgrade to 9?" style="rhombus;whiteSpace=wrap;html=1;rounded=0;" vertex="1" parent="XOxbf55b8lKNXetok6DY-15">
          <mxGeometry x="140" y="14" width="80" height="80" as="geometry" />
        </mxCell>
        <mxCell id="XOxbf55b8lKNXetok6DY-29" value="Downgrade to 8" style="rhombus;whiteSpace=wrap;html=1;rounded=0;" vertex="1" parent="XOxbf55b8lKNXetok6DY-15">
          <mxGeometry x="340" y="14" width="80" height="80" as="geometry" />
        </mxCell>
        <mxCell id="XOxbf55b8lKNXetok6DY-30" value="Zebra did not develop in Andriod 9" style="whiteSpace=wrap;html=1;aspect=fixed;rounded=0;" vertex="1" parent="XOxbf55b8lKNXetok6DY-15">
          <mxGeometry x="240" y="14" width="80" height="80" as="geometry" />
        </mxCell>
        <mxCell id="XOxbf55b8lKNXetok6DY-31" value="EB56 does not support 8" style="whiteSpace=wrap;html=1;aspect=fixed;rounded=0;" vertex="1" parent="XOxbf55b8lKNXetok6DY-15">
          <mxGeometry x="440" y="14" width="80" height="80" as="geometry" />
        </mxCell>
        <mxCell id="XOxbf55b8lKNXetok6DY-16" value="MDM Testing" style="swimlane;startSize=20;horizontal=0;" vertex="1" parent="1">
          <mxGeometry x="130" y="479" width="870" height="120" as="geometry" />
        </mxCell>
        <mxCell id="XOxbf55b8lKNXetok6DY-33" value="Airwatch reads IMEI and S\N from Andriod 10" style="whiteSpace=wrap;html=1;aspect=fixed;rounded=0;" vertex="1" parent="XOxbf55b8lKNXetok6DY-16">
          <mxGeometry x="600" y="20" width="80" height="80" as="geometry" />
        </mxCell>
        <mxCell id="XOxbf55b8lKNXetok6DY-34" value="" style="whiteSpace=wrap;html=1;aspect=fixed;rounded=0;" vertex="1" parent="XOxbf55b8lKNXetok6DY-16">
          <mxGeometry x="120" y="21" width="80" height="80" as="geometry" />
        </mxCell>
        <mxCell id="XOxbf55b8lKNXetok6DY-17" value="Provisioning" style="swimlane;startSize=20;horizontal=0;" vertex="1" parent="1">
          <mxGeometry x="130" y="600" width="870" height="120" as="geometry" />
        </mxCell>
      </root>
    </mxGraphModel>
  </diagram>
</mxfile>
